<?xml version="1.0" encoding="UTF-8"?>
<svg xmlns="http://www.w3.org/2000/svg" version="1.1" viewBox="0 0 688.06 464.85">
  <defs>
    <style>
      .cls-1 {
        fill: #f9a72c;
      }

      .cls-2 {
        fill: #263471;
      }

      .cls-3 {
        fill: #40bb6a;
      }

      .cls-4 {
        fill: #52afe6;
      }
    </style>
  </defs>
  <!-- Generator: Adobe Illustrator 28.7.1, SVG Export Plug-In . SVG Version: 1.2.0 Build 142)  -->
  <g>
    <g id="Layer_23">
      <path class="cls-2" d="M91.73,443.92c-6.16,0-11.86-1.15-17.08-3.46-5.23-2.31-9.77-5.47-13.62-9.48-3.85-4.02-6.85-8.78-9-14.29-2.15-5.51-3.22-11.47-3.22-17.87s1.07-12.4,3.22-17.75c2.14-5.35,5.15-9.91,9-13.68,3.85-3.77,8.39-6.69,13.62-8.75,5.22-2.07,10.92-3.11,17.08-3.11h21.52c6.4,0,12.26,1.06,17.57,3.16,5.31,2.11,9.87,5.07,13.68,8.88,3.81,3.81,6.77,8.37,8.87,13.68,2.11,5.31,3.16,11.17,3.16,17.57s-1.07,12.36-3.22,17.87c-2.14,5.51-5.15,10.27-9,14.29-3.85,4.01-8.41,7.17-13.68,9.48-5.27,2.31-11.06,3.46-17.38,3.46h-21.52M113.26,428.48c4.05,0,7.78-.73,11.19-2.19,3.4-1.45,6.34-3.46,8.82-6.01,2.47-2.55,4.39-5.61,5.77-9.18,1.38-3.56,2.07-7.41,2.07-11.55s-.69-7.96-2.07-11.49c-1.38-3.53-3.3-6.54-5.77-9.06-2.48-2.51-5.41-4.48-8.82-5.9-3.41-1.42-7.13-2.13-11.19-2.13h-21.52c-3.97,0-7.64.71-11,2.13-3.37,1.42-6.26,3.39-8.69,5.9-2.43,2.51-4.34,5.51-5.71,9-1.38,3.49-2.07,7.34-2.07,11.55s.69,7.99,2.07,11.55c1.38,3.57,3.28,6.63,5.71,9.18,2.43,2.56,5.33,4.56,8.69,6.01,3.36,1.47,7.03,2.19,11,2.19h21.52Z"/>
    </g>
    <g id="Layer_22">
      <polyline class="cls-2" points="246.14 443.92 209.06 407.81 172.34 443.92 152.28 443.92 199.7 397.96 155.69 355.53 176.96 355.53 210.64 388.24 243.83 355.53 263.89 355.53 219.88 397.96 267.78 443.92 246.14 443.92"/>
    </g>
    <g id="Layer_21">
      <rect class="cls-2" x="260.97" y="393.95" width="29.18" height="10.21"/>
    </g>
    <g id="Layer_20">
      <polyline class="cls-2" points="301.1 443.92 301.1 355.53 316.53 355.53 316.53 428.48 375.99 428.48 375.99 443.92 301.1 443.92"/>
    </g>
    <g id="Layer_19">
      <rect class="cls-2" x="387.91" y="355.53" width="15.43" height="88.39"/>
    </g>
    <g id="Layer_18">
      <path class="cls-2" d="M433.86,379.24v64.68h-14.71v-80.24c0-2.84.71-5.09,2.13-6.75,1.42-1.66,3.34-2.49,5.77-2.49,1.13,0,2.23.25,3.28.73,1.05.48,2.15,1.3,3.28,2.43l62.37,61.88v-64.68h14.71v80.98c0,2.92-.72,5.18-2.13,6.81-1.42,1.62-3.26,2.43-5.54,2.43-2.51,0-4.86-1.1-7.05-3.28l-62.13-62.49"/>
    </g>
    <g id="Layer_17">
      <path class="cls-2" d="M525.65,443.92v-88.39h15.45v88.39h-15.45M598.47,443.92l-49.48-38.9c-1.38-1.06-2.25-2.09-2.62-3.1-.36-1.02-.54-2.13-.54-3.34,0-1.38.24-2.59.73-3.65.49-1.05,1.54-2.19,3.16-3.4l46.81-35.99h23.71l-57.87,43.16,59.7,45.23h-23.59Z"/>
    </g>
    <g id="Layer_16">
      <path class="cls-3" d="M302.77,186.97c0-4.95.36-9.81,1.03-14.57l-72.64,60.98c-.71,3.58-1.11,7.27-1.11,11.07,0,.96.09,1.89.13,2.83l72.76-54.61c-.1-1.89-.17-3.79-.17-5.71"/>
    </g>
    <g id="Layer_15">
      <path class="cls-3" d="M219.4,248.64c0-1.9.1-3.77.28-5.62l-41.85,35.13c-.31,1.99-.51,4.02-.51,6.11,0,.88.07,1.74.12,2.61l42.34-31.78c-.23-2.12-.37-4.27-.37-6.46"/>
    </g>
    <g id="Layer_14">
      <path class="cls-3" d="M321.72,178.58l120.43-90.39-3.65-22.06h-8.09l-105.63,88.67c-1.91,7.61-2.98,15.56-3.05,23.79"/>
    </g>
    <g id="Layer_13">
      <path class="cls-4" d="M332.6,225.14l105.76-51.03-11.09-25.81-101.63,59.37c1.77,6.11,4.11,11.95,6.96,17.47"/>
    </g>
    <g id="Layer_12">
      <path class="cls-4" d="M222.67,267.82l-44.19,25.82c.43,1.75.93,3.46,1.58,5.09l46.31-22.35c-1.46-2.72-2.68-5.59-3.71-8.56"/>
    </g>
    <g id="Layer_11">
      <path class="cls-4" d="M307.55,218.23l-74.74,43.66c1.07,3.3,2.43,6.45,4.07,9.42l77.15-37.22c-2.58-5.05-4.75-10.35-6.48-15.86"/>
    </g>
    <g id="Layer_10">
      <path class="cls-1" d="M331.43,258.57l-84.14,25.97c3.51,3.22,7.47,5.93,11.81,8.07l88.12-20.69c-5.71-3.89-11-8.37-15.79-13.36"/>
    </g>
    <g id="Layer_9">
      <path class="cls-1" d="M374.02,265.64l119.05-27.95-16.19-24.02-123.56,38.15c6.19,5.49,13.13,10.17,20.7,13.83"/>
    </g>
    <g id="Layer_8">
      <path class="cls-1" d="M235,288.35l-52.05,16.07c1.14,1.85,2.44,3.57,3.88,5.17l57.14-13.42c-3.27-2.27-6.25-4.91-8.98-7.82"/>
    </g>
    <g id="Layer_7">
      <path class="cls-2" d="M406.73,281c-53.56,0-93.15-42.66-93.15-95.27,0-48.62,33.81-88.69,81.18-94.52-.22,0-.44-.01-.66-.01-54.91,0-99.43,45.65-99.43,101.97s44.51,101.98,99.43,101.98c32.06,0,60.56-15.59,78.74-39.76-17.32,15.89-40.56,25.62-66.12,25.62"/>
    </g>
    <g id="Layer_6">
      <path class="cls-2" d="M277.18,300.99c-30.1,0-52.36-23.97-52.36-53.56,0-27.48,19.22-50.1,46.09-53.17-.26,0-.51-.04-.77-.04-30.9,0-55.96,25.7-55.96,57.4s25.06,57.4,55.96,57.4c18.25,0,34.4-9,44.62-22.86-9.78,9.16-23,14.82-37.58,14.82"/>
    </g>
    <g id="Layer_5">
      <path class="cls-2" d="M210.8,323.1c-20.85,0-36.27-16.61-36.27-37.1s15.37-37.04,36.17-37.09c-1.43-.16-2.88-.26-4.36-.26-21.7,0-39.29,18.04-39.29,40.3s17.59,40.3,39.29,40.3c14.58,0,27.28-8.16,34.05-20.26-6.92,8.59-17.59,14.12-29.6,14.12"/>
    </g>
    <g id="Layer_4">
      <path class="cls-3" d="M450.63,91.28c-8.03,6.78-20.03,5.76-26.8-2.27-6.78-8.03-5.75-20.02,2.27-26.8,8.03-6.77,20.03-5.75,26.8,2.27,6.77,8.03,5.75,20.03-2.28,26.8"/>
    </g>
    <g id="Layer_3">
      <path class="cls-4" d="M443.12,176.71c-7.9,6.67-19.71,5.66-26.37-2.25-6.67-7.9-5.66-19.71,2.24-26.37,7.9-6.67,19.71-5.66,26.37,2.24,6.66,7.9,5.66,19.71-2.24,26.37"/>
    </g>
    <g id="Layer_2">
      <path class="cls-1" d="M497.17,239.21c-7.9,6.66-19.71,5.66-26.37-2.24-6.67-7.9-5.66-19.71,2.24-26.38,7.89-6.66,19.7-5.66,26.37,2.24,6.67,7.9,5.66,19.71-2.24,26.38"/>
    </g>
  </g>
</svg>