<?xml version="1.0" encoding="UTF-8"?>
<svg xmlns="http://www.w3.org/2000/svg" version="1.1" viewBox="0 0 2000 2000">
  <defs>
    <style>
      .cls-1, .cls-2 {
        fill: #d3d3d5;
        opacity: .5;
      }

      .cls-2 {
        fill-rule: evenodd;
      }
    </style>
  </defs>
  <!-- Generator: Adobe Illustrator 28.7.1, SVG Export Plug-In . SVG Version: 1.2.0 Build 142)  -->
  <g>
    <g id="Layer_1">
      <g>
        <path class="cls-1" d="M1558.93,1728.96c-128.25-134.11-256.5-268.23-384.75-402.34-1.2,1.74-2.85,3.8-5.05,5.87-2.65,2.49-5.26,4.2-7.35,5.35,128.35,134.23,256.71,268.47,385.06,402.7l12.09-11.59Z"/>
        <path class="cls-1" d="M1641.24,1720.89l-972.66-1015.17c-1.24,1.92-3.04,4.3-5.56,6.68-2.34,2.21-4.64,3.8-6.53,4.91,324.22,338.39,648.44,676.78,972.66,1015.17l12.09-11.58Z"/>
        <rect class="cls-1" x="1243.95" y="1282.39" width="16.75" height="582.27" transform="translate(-740.54 1303.74) rotate(-43.78)"/>
        <rect class="cls-1" x="1220.33" y="1353.72" width="16.75" height="582.27" transform="translate(-796.46 1307.23) rotate(-43.78)"/>
        <rect class="cls-1" x="1115.22" y="1254.25" width="16.75" height="815.94" transform="translate(-837.68 1239.33) rotate(-43.78)"/>
        <path class="cls-2" d="M664.3,661.13c-13.81-14.41-36.68-14.9-51.09-1.1-14.41,13.81-14.9,36.68-1.09,51.09,13.81,14.41,36.68,14.9,51.09,1.09,14.41-13.81,14.9-36.68,1.09-51.09"/>
        <path class="cls-2" d="M1170.48,1281.16c-13.81-14.41-36.68-14.9-51.09-1.1-14.41,13.81-14.9,36.68-1.09,51.09,13.81,14.41,36.68,14.9,51.09,1.09,14.41-13.81,14.9-36.68,1.09-51.09"/>
        <path class="cls-2" d="M1052.81,1313.06c-13.81-14.41-36.68-14.9-51.09-1.09-14.41,13.81-14.9,36.68-1.09,51.09,13.81,14.41,36.68,14.9,51.09,1.09,14.41-13.81,14.9-36.68,1.09-51.09"/>
        <path class="cls-2" d="M1037.41,1392.98c-13.81-14.41-36.68-14.9-51.09-1.1-14.41,13.81-14.9,36.68-1.09,51.09,13.81,14.41,36.68,14.9,51.09,1.09,14.41-13.81,14.9-36.68,1.09-51.09"/>
        <path class="cls-2" d="M843.11,1317.25c-13.81-14.41-36.68-14.9-51.09-1.09s-14.9,36.68-1.09,51.09c13.81,14.41,36.68,14.9,51.09,1.1,14.41-13.81,14.9-36.68,1.09-51.09"/>
        <path class="cls-1" d="M1131.89,1272.29c-.16-103.43-.29-195.33-.45-298.76-1.46.21-3.29.28-5.34.17-2.31-.12-4.29-.51-5.84-.93.17,50.94.34,101.87.51,152.81.17,50.04.34,100.08.51,152.81,1.47-1.22,3.33-2.57,5.62-3.83,1.79-.99,3.48-1.72,4.98-2.27Z"/>
        <path class="cls-1" d="M1013.8,1304.3l6.8-341.26c-1.5.19-3.35.31-5.44.19-2.23-.13-4.15-.5-5.69-.9-2.27,115.88-4.53,232.86-6.8,348.74,1.93-1.72,4.45-3.6,7.62-5.23,1.22-.62,2.39-1.1,3.5-1.53Z"/>
        <path class="cls-1" d="M800.54,1310.08c2.02-102.13,4.03-204.26,6.05-306.38l-11.13-.21c-2.01,105.14-4.02,210.28-6.02,315.42,1.4-1.64,3.27-3.54,5.7-5.39,1.93-1.48,3.79-2.59,5.41-3.43Z"/>
        <path class="cls-1" d="M622.52,1395.28l356.76,5.87c1.09-2.01,2.62-4.4,4.74-6.85,1.52-1.75,3.03-3.17,4.41-4.31-122.69-1.96-245.38-3.91-368.06-5.87l2.15,11.16Z"/>
        <path class="cls-1" d="M1120.3,916.75c-53.08-55.15-106.16-110.3-159.23-165.46-.32.44-.69.9-1.1,1.37-.67.76-1.34,1.4-1.96,1.94,52.42,54.67,104.84,109.35,157.26,164.02.78-.38,1.66-.75,2.62-1.1.85-.31,1.67-.56,2.42-.76Z"/>
        <path class="cls-1" d="M1006.07,907.35c-59.4-61.97-118.81-123.94-178.21-185.91l-4.02,3.85,177.05,184.77c.71-.47,1.51-.95,2.4-1.42.98-.52,1.92-.94,2.78-1.29Z"/>
        <polygon class="cls-1" points="781.02 951.51 555.71 708.39 551.7 712.24 777 955.36 781.02 951.51"/>
        <polygon class="cls-1" points="795.45 1052.95 695.35 940.39 691.34 944.23 794.39 1060.12 795.45 1052.95"/>
        <path class="cls-1" d="M792.58,1155.62c-60.19-62.76-120.37-125.52-180.56-188.29-.56.7-1.28,1.48-2.18,2.27-.68.59-1.34,1.08-1.95,1.47,61.51,64.15,123.02,128.29,184.53,192.44l.15-7.89Z"/>
        <path class="cls-1" d="M722.67,1385.71l-153.23-160.39c-.49.67-1.11,1.43-1.9,2.21-.71.7-1.41,1.27-2.04,1.72,51.9,54.29,97.27,102.05,149.18,156.34l7.99.12Z"/>
        <path class="cls-1" d="M638.21,649.99l-9.53-309.71c-1.54.62-3.49,1.27-5.8,1.69-2.01.37-3.82.48-5.32.48,1.28,103.9,2.55,207.8,3.83,311.69,2.08-1.1,4.93-2.34,8.47-3.18,3.25-.77,6.13-.98,8.36-.97Z"/>
        <path class="cls-1" d="M602.85,288.51l-213.21-222.39c-.51.68-1.16,1.44-1.99,2.21-.71.67-1.41,1.21-2.03,1.64,70.9,73.96,141.8,147.92,212.71,221.87.69-.62,1.49-1.28,2.39-1.93.74-.54,1.46-1,2.14-1.41Z"/>
        <path class="cls-1" d="M618.2,396.11l-103.79-105.02c-.48.64-1.09,1.36-1.86,2.09-.76.73-1.5,1.31-2.16,1.76,35.98,36.44,71.93,72.88,107.91,109.32l-.1-8.15Z"/>
        <path class="cls-1" d="M619.59,508.08l-177.62-197.11c-.45.65-1.02,1.37-1.74,2.12-.74.77-1.48,1.39-2.13,1.88,60.53,67.01,121.06,134.02,181.59,201.02l-.1-7.91Z"/>
        <path class="cls-2" d="M1148.76,924.69c-11.08-11.56-29.43-11.96-41-.88-11.57,11.08-11.96,29.43-.88,41,11.08,11.57,29.43,11.96,41,.88,11.56-11.08,11.95-29.43.88-41"/>
        <path class="cls-2" d="M1037.79,914.22c-11.08-11.57-29.43-11.96-41-.88-11.56,11.08-11.96,29.43-.88,41,11.08,11.57,29.43,11.96,41,.88,11.57-11.08,11.96-29.43.88-41"/>
        <path class="cls-2" d="M818,956.24c-11.08-11.56-29.44-11.96-41-.88-11.56,11.08-11.96,29.44-.88,41,11.08,11.56,29.43,11.96,41,.88,11.57-11.08,11.96-29.43.88-41"/>
        <path class="cls-2" d="M638.6,293.39c-11.08-11.56-29.43-11.96-41-.88-11.57,11.08-11.96,29.43-.88,41,11.08,11.56,29.43,11.96,41,.88,11.56-11.08,11.96-29.43.88-41"/>
        <path class="cls-2" d="M959.44,729.26c-6.63-6.92-17.6-7.15-24.52-.52-6.91,6.63-7.15,17.6-.52,24.52,6.63,6.92,17.6,7.15,24.52.52,6.92-6.63,7.15-17.6.53-24.52"/>
        <path class="cls-2" d="M832.68,702.86c-6.63-6.92-17.6-7.15-24.52-.53-6.91,6.63-7.15,17.6-.52,24.52,6.63,6.91,17.6,7.15,24.52.52,6.92-6.63,7.15-17.6.53-24.52"/>
        <path class="cls-2" d="M554.38,685.97c-6.63-6.92-17.6-7.15-24.52-.53-6.92,6.63-7.15,17.6-.52,24.52,6.63,6.92,17.61,7.15,24.52.53,6.92-6.63,7.15-17.61.53-24.52"/>
        <path class="cls-2" d="M691.86,919.71c-6.63-6.91-17.6-7.15-24.52-.52-6.92,6.63-7.15,17.61-.52,24.52,6.63,6.91,17.6,7.15,24.52.52,6.91-6.63,7.15-17.6.52-24.52"/>
        <path class="cls-2" d="M610.99,944.51c-6.63-6.92-17.6-7.15-24.52-.52-6.92,6.63-7.15,17.6-.52,24.52,6.63,6.92,17.6,7.15,24.52.52,6.91-6.63,7.15-17.61.52-24.52"/>
        <path class="cls-2" d="M567.85,1203.13c-6.63-6.91-17.61-7.15-24.52-.52-6.92,6.63-7.15,17.6-.52,24.52,6.63,6.92,17.6,7.15,24.52.52,6.92-6.63,7.15-17.6.53-24.52"/>
        <path class="cls-2" d="M615.23,1369.39c-10.92-11.4-29.01-11.78-40.41-.86-11.4,10.92-11.79,29.01-.86,40.41,10.92,11.4,29.01,11.78,40.41.86,11.4-10.92,11.79-29.02.86-40.42"/>
        <path class="cls-2" d="M388.3,43.7c-6.63-6.91-17.6-7.15-24.52-.52-6.92,6.63-7.15,17.6-.52,24.52,6.63,6.92,17.6,7.15,24.52.52,6.91-6.63,7.15-17.6.52-24.52"/>
        <path class="cls-2" d="M513.08,268.67c-6.63-6.92-17.6-7.15-24.52-.53-6.92,6.63-7.15,17.6-.52,24.52,6.63,6.91,17.61,7.15,24.52.52,6.92-6.63,7.15-17.6.52-24.52"/>
        <path class="cls-2" d="M440.25,289.07c-6.63-6.91-17.61-7.15-24.52-.52-6.91,6.63-7.15,17.6-.52,24.52,6.63,6.92,17.6,7.15,24.52.52,6.91-6.63,7.15-17.6.52-24.52"/>
      </g>
    </g>
  </g>
</svg>