<?xml version="1.0" encoding="UTF-8"?>
<svg xmlns="http://www.w3.org/2000/svg" version="1.1" viewBox="0 0 2000 2000">
  <defs>
    <style>
      .cls-1 {
        fill: #57595a;
      }

      .cls-2 {
        fill: #DBD9DC;
      }

      .cls-3 {
        stroke-width: 6.98px;
      }

      .cls-3, .cls-4 {
        fill: none;
        stroke: #383535;
        stroke-miterlimit: 10;
      }

      .cls-4 {
        stroke-width: 13.96px;
      }

      .cls-5 {
        fill: #d68664;
      }
    </style>
  </defs>
  <!-- Generator: Adobe Illustrator 28.7.1, SVG Export Plug-In . SVG Version: 1.2.0 Build 142)  -->
  <g>
    <g id="Layer_1">
      <g>
        <path class="cls-1" d="M1879.19,1000.39c0,485.61-393.66,879.27-879.27,879.27S120.65,1486,120.65,1000.39,514.32,121.12,999.92,121.12s879.27,393.66,879.27,879.27"/>
        <path class="cls-2" d="M1806.78,1000.39c0,445.62-361.24,806.86-806.85,806.86S193.07,1446.01,193.07,1000.39,554.31,193.53,999.93,193.53s806.85,361.24,806.85,806.86"/>
        <path class="cls-5" d="M1143.9,687.77c0,34.19-27.72,61.91-61.91,61.91s-61.91-27.72-61.91-61.91,27.72-61.92,61.91-61.92,61.91,27.73,61.91,61.92"/>
        <path class="cls-3" d="M1143.96,687.71c0,34.19-27.72,61.91-61.91,61.91s-61.91-27.72-61.91-61.91,27.72-61.92,61.91-61.92,61.91,27.73,61.91,61.92Z"/>
        <path class="cls-4" d="M1242.39,687.71c0-88.55-71.79-160.34-160.34-160.34s-160.33,71.79-160.33,160.34,71.78,160.33,160.33,160.33,160.34-71.79,160.34-160.33Z"/>
        <path class="cls-5" d="M823,774.9c0,34.19-27.72,61.91-61.91,61.91s-61.91-27.72-61.91-61.91,27.72-61.92,61.91-61.92,61.91,27.73,61.91,61.92"/>
        <path class="cls-3" d="M823.06,774.83c0,34.19-27.72,61.91-61.91,61.91s-61.91-27.72-61.91-61.91,27.72-61.92,61.91-61.92,61.91,27.73,61.91,61.92Z"/>
        <path class="cls-4" d="M921.48,774.83c0-88.55-71.78-160.34-160.34-160.34s-160.34,71.8-160.34,160.34,71.79,160.33,160.34,160.33,160.34-71.79,160.34-160.33Z"/>
        <path class="cls-5" d="M744.46,1091.83c0,34.19-27.71,61.91-61.91,61.91s-61.91-27.72-61.91-61.91,27.72-61.92,61.91-61.92,61.91,27.72,61.91,61.92"/>
        <path class="cls-3" d="M744.51,1091.77c0,34.19-27.71,61.91-61.91,61.91s-61.91-27.72-61.91-61.91,27.72-61.92,61.91-61.92,61.91,27.72,61.91,61.92Z"/>
        <path class="cls-4" d="M842.94,1091.77c0-88.55-71.78-160.34-160.34-160.34s-160.33,71.8-160.33,160.34,71.78,160.33,160.33,160.33,160.34-71.79,160.34-160.33Z"/>
        <path class="cls-5" d="M427.52,1006.4c0,34.19-27.72,61.91-61.91,61.91s-61.91-27.72-61.91-61.91,27.72-61.92,61.91-61.92,61.91,27.73,61.91,61.92"/>
        <path class="cls-3" d="M427.58,1006.33c0,34.19-27.72,61.91-61.91,61.91s-61.91-27.72-61.91-61.91,27.72-61.92,61.91-61.92,61.91,27.72,61.91,61.92Z"/>
        <path class="cls-4" d="M526,1006.33c0-88.55-71.79-160.34-160.34-160.34s-160.33,71.79-160.33,160.34,71.78,160.33,160.33,160.33,160.34-71.79,160.34-160.33Z"/>
        <path class="cls-5" d="M512.96,1321.95c0,34.2-27.72,61.91-61.91,61.91s-61.91-27.72-61.91-61.91,27.72-61.92,61.91-61.92,61.91,27.73,61.91,61.92"/>
        <path class="cls-3" d="M513.01,1321.89c0,34.2-27.72,61.91-61.91,61.91s-61.91-27.71-61.91-61.91,27.72-61.92,61.91-61.92,61.91,27.73,61.91,61.92Z"/>
        <path class="cls-4" d="M611.44,1321.89c0-88.55-71.78-160.34-160.34-160.34s-160.33,71.79-160.33,160.34,71.78,160.34,160.33,160.34,160.34-71.8,160.34-160.34Z"/>
        <path class="cls-5" d="M1379.44,916.43c0,34.19-27.72,61.91-61.91,61.91s-61.91-27.71-61.91-61.91,27.72-61.92,61.91-61.92,61.91,27.72,61.91,61.92"/>
        <path class="cls-3" d="M1379.51,916.36c0,34.19-27.72,61.91-61.91,61.91s-61.91-27.72-61.91-61.91,27.71-61.92,61.91-61.92,61.91,27.72,61.91,61.92Z"/>
        <path class="cls-4" d="M1477.93,916.36c0-88.55-71.78-160.34-160.34-160.34s-160.34,71.8-160.34,160.34,71.79,160.33,160.34,160.33,160.34-71.8,160.34-160.33Z"/>
        <path class="cls-5" d="M1302.81,1233.91c0,34.2-27.72,61.91-61.91,61.91s-61.91-27.71-61.91-61.91,27.72-61.92,61.91-61.92,61.91,27.73,61.91,61.92"/>
        <path class="cls-3" d="M1302.87,1233.85c0,34.2-27.72,61.91-61.91,61.91s-61.91-27.72-61.91-61.91,27.72-61.92,61.91-61.92,61.91,27.73,61.91,61.92Z"/>
        <path class="cls-4" d="M1401.29,1233.85c0-88.55-71.78-160.34-160.34-160.34s-160.34,71.79-160.34,160.34,71.79,160.34,160.34,160.34,160.34-71.8,160.34-160.34Z"/>
        <path class="cls-5" d="M1068.49,1001.61c0,34.19-27.72,61.91-61.91,61.91s-61.91-27.72-61.91-61.91,27.71-61.92,61.91-61.92,61.91,27.73,61.91,61.92"/>
        <path class="cls-3" d="M1068.55,1001.54c0,34.19-27.72,61.91-61.91,61.91s-61.91-27.72-61.91-61.91,27.72-61.92,61.91-61.92,61.91,27.73,61.91,61.92Z"/>
        <path class="cls-4" d="M1166.97,1001.54c0-88.55-71.78-160.34-160.34-160.34s-160.34,71.79-160.34,160.34,71.79,160.33,160.34,160.33,160.34-71.79,160.34-160.33Z"/>
        <path class="cls-5" d="M983.34,1317.88c0,34.19-27.71,61.91-61.91,61.91s-61.91-27.72-61.91-61.91,27.72-61.92,61.91-61.92,61.91,27.72,61.91,61.92"/>
        <path class="cls-3" d="M983.4,1317.82c0,34.19-27.72,61.91-61.91,61.91s-61.91-27.72-61.91-61.91,27.72-61.92,61.91-61.92,61.91,27.73,61.91,61.92Z"/>
        <path class="cls-4" d="M1081.83,1317.82c0-88.55-71.79-160.34-160.34-160.34s-160.33,71.8-160.33,160.34,71.78,160.33,160.33,160.33,160.34-71.79,160.34-160.33Z"/>
        <path class="cls-5" d="M749.79,1548.99c0,34.2-27.71,61.91-61.91,61.91s-61.91-27.71-61.91-61.91,27.72-61.92,61.91-61.92,61.91,27.73,61.91,61.92"/>
        <path class="cls-3" d="M749.85,1548.93c0,34.2-27.72,61.91-61.91,61.91s-61.91-27.72-61.91-61.91,27.72-61.92,61.91-61.92,61.91,27.73,61.91,61.92Z"/>
        <path class="cls-4" d="M848.28,1548.93c0-88.55-71.79-160.34-160.34-160.34s-160.33,71.79-160.33,160.34,71.78,160.34,160.33,160.34,160.34-71.8,160.34-160.34Z"/>
        <path class="cls-5" d="M1063.62,1634.15c0,34.19-27.71,61.91-61.91,61.91s-61.91-27.72-61.91-61.91,27.71-61.92,61.91-61.92,61.91,27.73,61.91,61.92"/>
        <path class="cls-3" d="M1063.69,1634.09c0,34.19-27.72,61.91-61.91,61.91s-61.91-27.72-61.91-61.91,27.71-61.92,61.91-61.92,61.91,27.73,61.91,61.92Z"/>
        <path class="cls-4" d="M1162.11,1634.09c0-88.55-71.79-160.34-160.34-160.34s-160.33,71.79-160.33,160.34,71.78,160.34,160.33,160.34,160.34-71.8,160.34-160.34Z"/>
        <path class="cls-5" d="M1389.63,1551.43c0,34.2-27.72,61.91-61.91,61.91s-61.91-27.71-61.91-61.91,27.72-61.92,61.91-61.92,61.91,27.73,61.91,61.92"/>
        <path class="cls-3" d="M1389.69,1551.37c0,34.2-27.72,61.91-61.91,61.91s-61.91-27.72-61.91-61.91,27.72-61.92,61.91-61.92,61.91,27.73,61.91,61.92Z"/>
        <path class="cls-4" d="M1488.11,1551.37c0-88.55-71.78-160.34-160.34-160.34s-160.34,71.79-160.34,160.34,71.79,160.34,160.34,160.34,160.34-71.8,160.34-160.34Z"/>
        <path class="cls-5" d="M1611.02,1315.45c0,34.19-27.72,61.91-61.91,61.91s-61.91-27.71-61.91-61.91,27.72-61.92,61.91-61.92,61.91,27.72,61.91,61.92"/>
        <path class="cls-3" d="M1611.09,1315.39c0,34.19-27.72,61.91-61.91,61.91s-61.91-27.71-61.91-61.91,27.72-61.92,61.91-61.92,61.91,27.72,61.91,61.92Z"/>
        <path class="cls-4" d="M1709.51,1315.39c0-88.55-71.78-160.34-160.34-160.34s-160.34,71.79-160.34,160.34,71.79,160.33,160.34,160.33,160.34-71.8,160.34-160.33Z"/>
        <path class="cls-5" d="M1696.16,999.18c0,34.19-27.71,61.91-61.91,61.91s-61.91-27.71-61.91-61.91,27.71-61.92,61.91-61.92,61.91,27.73,61.91,61.92"/>
        <path class="cls-3" d="M1696.23,999.12c0,34.19-27.71,61.91-61.91,61.91s-61.91-27.71-61.91-61.91,27.71-61.92,61.91-61.92,61.91,27.73,61.91,61.92Z"/>
        <path class="cls-4" d="M1794.66,999.12c0-88.55-71.79-160.34-160.34-160.34s-160.33,71.8-160.33,160.34,71.78,160.33,160.33,160.33,160.34-71.8,160.34-160.33Z"/>
        <path class="cls-5" d="M1611.02,682.91c0,34.2-27.72,61.92-61.91,61.92s-61.91-27.72-61.91-61.92,27.72-61.92,61.91-61.92,61.91,27.73,61.91,61.92"/>
        <path class="cls-3" d="M1611.09,682.84c0,34.2-27.72,61.92-61.91,61.92s-61.91-27.72-61.91-61.92,27.72-61.92,61.91-61.92,61.91,27.73,61.91,61.92Z"/>
        <path class="cls-4" d="M1709.51,682.84c0-88.54-71.78-160.34-160.34-160.34s-160.34,71.8-160.34,160.34,71.79,160.34,160.34,160.34,160.34-71.8,160.34-160.34Z"/>
        <path class="cls-5" d="M1372.6,454.22c0,34.2-27.72,61.91-61.91,61.91s-61.91-27.71-61.91-61.91,27.72-61.92,61.91-61.92,61.91,27.73,61.91,61.92"/>
        <path class="cls-3" d="M1372.66,454.16c0,34.2-27.71,61.91-61.91,61.91s-61.9-27.71-61.9-61.91,27.71-61.92,61.9-61.92,61.91,27.72,61.91,61.92Z"/>
        <path class="cls-4" d="M1471.09,454.16c0-88.55-71.79-160.34-160.34-160.34s-160.33,71.79-160.33,160.34,71.78,160.34,160.33,160.34,160.34-71.8,160.34-160.34Z"/>
        <path class="cls-5" d="M1058.76,366.64c0,34.2-27.71,61.91-61.91,61.91s-61.91-27.71-61.91-61.91,27.72-61.92,61.91-61.92,61.91,27.73,61.91,61.92"/>
        <path class="cls-3" d="M1058.83,366.57c0,34.2-27.71,61.91-61.91,61.91s-61.91-27.72-61.91-61.91,27.72-61.92,61.91-61.92,61.91,27.72,61.91,61.92Z"/>
        <path class="cls-4" d="M1157.25,366.57c0-88.55-71.79-160.34-160.34-160.34s-160.33,71.79-160.33,160.34,71.78,160.34,160.33,160.34,160.34-71.79,160.34-160.34Z"/>
        <path class="cls-5" d="M740.06,454.22c0,34.2-27.71,61.91-61.91,61.91s-61.9-27.71-61.9-61.91,27.71-61.92,61.9-61.92,61.91,27.73,61.91,61.92"/>
        <path class="cls-3" d="M740.12,454.16c0,34.2-27.72,61.91-61.91,61.91s-61.91-27.71-61.91-61.91,27.71-61.92,61.91-61.92,61.91,27.72,61.91,61.92Z"/>
        <path class="cls-4" d="M838.54,454.16c0-88.55-71.79-160.34-160.34-160.34s-160.33,71.79-160.33,160.34,71.78,160.34,160.33,160.34,160.34-71.8,160.34-160.34Z"/>
        <path class="cls-5" d="M508.95,687.78c0,34.19-27.72,61.91-61.91,61.91s-61.91-27.71-61.91-61.91,27.72-61.92,61.91-61.92,61.91,27.72,61.91,61.92"/>
        <path class="cls-3" d="M509.01,687.71c0,34.19-27.72,61.9-61.91,61.9s-61.91-27.71-61.91-61.9,27.72-61.92,61.91-61.92,61.91,27.72,61.91,61.92Z"/>
        <path class="cls-4" d="M607.43,687.71c0-88.55-71.78-160.34-160.34-160.34s-160.34,71.79-160.34,160.34,71.79,160.33,160.34,160.33,160.34-71.8,160.34-160.33Z"/>
      </g>
    </g>
  </g>
</svg>